<svg width="70" height="71" viewBox="0 0 70 71" fill="none" xmlns="http://www.w3.org/2000/svg">
<g filter="url(#filter0_bd_2023_58)">
<circle cx="35" cy="35.2953" r="20" fill="white"/>
<circle cx="35" cy="35.2953" r="19.5" stroke="#E6E6F2"/>
</g>
<path d="M39.6595 40.9881H35.9749L31.8758 43.8297C31.2678 44.2521 30.448 43.8009 30.448 43.0329V40.9881C27.6846 40.9881 25.8423 39.0681 25.8423 36.1881V30.4281C25.8423 27.5481 27.6846 25.6281 30.448 25.6281H39.6595C42.4229 25.6281 44.2652 27.5481 44.2652 30.4281V36.1881C44.2652 39.0681 42.4229 40.9881 39.6595 40.9881Z" stroke="#535F71" stroke-width="1.5" stroke-miterlimit="10" stroke-linecap="round" stroke-linejoin="round"/>
<path d="M35.0537 34.2008V33.9993C35.0537 33.3465 35.4406 33.0008 35.8275 32.7224C36.2052 32.4536 36.5828 32.1081 36.5828 31.4745C36.5828 30.5913 35.9012 29.8808 35.0537 29.8808C34.2063 29.8808 33.5247 30.5913 33.5247 31.4745" stroke="#535F71" stroke-width="1.5" stroke-linecap="round" stroke-linejoin="round"/>
<path d="M35.0496 36.4953H35.0579" stroke="#535F71" stroke-width="1.5" stroke-linecap="round" stroke-linejoin="round"/>
<defs>
<filter id="filter0_bd_2023_58" x="-285" y="-284.705" width="640" height="640" filterUnits="userSpaceOnUse" color-interpolation-filters="sRGB">
<feFlood flood-opacity="0" result="BackgroundImageFix"/>
<feGaussianBlur in="BackgroundImageFix" stdDeviation="150"/>
<feComposite in2="SourceAlpha" operator="in" result="effect1_backgroundBlur_2023_58"/>
<feColorMatrix in="SourceAlpha" type="matrix" values="0 0 0 0 0 0 0 0 0 0 0 0 0 0 0 0 0 0 127 0" result="hardAlpha"/>
<feOffset/>
<feGaussianBlur stdDeviation="7.5"/>
<feComposite in2="hardAlpha" operator="out"/>
<feColorMatrix type="matrix" values="0 0 0 0 0.541667 0 0 0 0 0.541667 0 0 0 0 0.541667 0 0 0 0.08 0"/>
<feBlend mode="normal" in2="effect1_backgroundBlur_2023_58" result="effect2_dropShadow_2023_58"/>
<feBlend mode="normal" in="SourceGraphic" in2="effect2_dropShadow_2023_58" result="shape"/>
</filter>
</defs>
</svg>
