<svg width="23" height="24" viewBox="0 0 23 24" fill="none" xmlns="http://www.w3.org/2000/svg">
<path d="M15.6595 17.9881H11.9749L7.87577 20.8297C7.26782 21.2521 6.44801 20.8009 6.44801 20.0329V17.9881C3.68458 17.9881 1.84229 16.0681 1.84229 13.1881V7.42805C1.84229 4.54805 3.68458 2.62805 6.44801 2.62805H15.6595C18.4229 2.62805 20.2652 4.54805 20.2652 7.42805V13.1881C20.2652 16.0681 18.4229 17.9881 15.6595 17.9881Z" stroke="#535F71" stroke-width="1.5" stroke-miterlimit="10" stroke-linecap="round" stroke-linejoin="round"/>
<path d="M11.0537 11.2008V10.9993C11.0537 10.3465 11.4406 10.0008 11.8275 9.72245C12.2052 9.45365 12.5828 9.10806 12.5828 8.47446C12.5828 7.59126 11.9012 6.88083 11.0537 6.88083C10.2063 6.88083 9.52466 7.59126 9.52466 8.47446" stroke="#535F71" stroke-width="1.5" stroke-linecap="round" stroke-linejoin="round"/>
<path d="M11.0496 13.4953H11.0579" stroke="#535F71" stroke-width="1.5" stroke-linecap="round" stroke-linejoin="round"/>
</svg>
