<svg width="70" height="71" viewBox="0 0 70 71" fill="none" xmlns="http://www.w3.org/2000/svg">
<g filter="url(#filter0_bd_2023_37)">
<circle cx="35" cy="35.1265" r="20" fill="white"/>
<circle cx="35" cy="35.1265" r="19.5" stroke="#E6E6F2"/>
</g>
<path d="M35.0537 30.1002V33.297" stroke="#535F71" stroke-width="1.5" stroke-miterlimit="10" stroke-linecap="round"/>
<path d="M35.0722 25.8378C31.6823 25.8378 28.9373 28.6986 28.9373 32.2314V34.2474C28.9373 34.9002 28.6794 35.8794 28.357 36.4362L27.1872 38.4714C26.4687 39.729 26.9661 41.1306 28.2925 41.5914C32.6956 43.1178 37.4579 43.1178 41.861 41.5914C43.1045 41.1594 43.6388 39.6426 42.9664 38.4714L41.7965 36.4362C41.4741 35.8794 41.2162 34.8906 41.2162 34.2474V32.2314C41.207 28.7178 38.4435 25.8378 35.0722 25.8378Z" stroke="#535F71" stroke-width="1.5" stroke-miterlimit="10" stroke-linecap="round"/>
<path d="M38.1212 41.985C38.1212 43.7418 36.7394 45.1818 35.0537 45.1818C34.2155 45.1818 33.4417 44.817 32.889 44.241C32.3364 43.665 31.9863 42.8586 31.9863 41.985" stroke="#535F71" stroke-width="1.5" stroke-miterlimit="10"/>
<circle cx="48.5" cy="19.5422" r="4.5" fill="#0058F6"/>
<defs>
<filter id="filter0_bd_2023_37" x="-285" y="-284.873" width="640" height="640" filterUnits="userSpaceOnUse" color-interpolation-filters="sRGB">
<feFlood flood-opacity="0" result="BackgroundImageFix"/>
<feGaussianBlur in="BackgroundImageFix" stdDeviation="150"/>
<feComposite in2="SourceAlpha" operator="in" result="effect1_backgroundBlur_2023_37"/>
<feColorMatrix in="SourceAlpha" type="matrix" values="0 0 0 0 0 0 0 0 0 0 0 0 0 0 0 0 0 0 127 0" result="hardAlpha"/>
<feOffset/>
<feGaussianBlur stdDeviation="7.5"/>
<feComposite in2="hardAlpha" operator="out"/>
<feColorMatrix type="matrix" values="0 0 0 0 0.541667 0 0 0 0 0.541667 0 0 0 0 0.541667 0 0 0 0.08 0"/>
<feBlend mode="normal" in2="effect1_backgroundBlur_2023_37" result="effect2_dropShadow_2023_37"/>
<feBlend mode="normal" in="SourceGraphic" in2="effect2_dropShadow_2023_37" result="shape"/>
</filter>
</defs>
</svg>
