<svg width="23" height="24" viewBox="0 0 23 24" fill="none" xmlns="http://www.w3.org/2000/svg">
<path d="M11.0537 7.10022V10.297" stroke="#535F71" stroke-width="1.5" stroke-miterlimit="10" stroke-linecap="round"/>
<path d="M11.0722 2.83783C7.68234 2.83783 4.93733 5.69863 4.93733 9.23143V11.2474C4.93733 11.9002 4.67941 12.8794 4.357 13.4362L3.18715 15.4714C2.46866 16.729 2.96608 18.1306 4.29252 18.5914C8.6956 20.1178 13.4579 20.1178 17.861 18.5914C19.1045 18.1594 19.6388 16.6426 18.9664 15.4714L17.7965 13.4362C17.4741 12.8794 17.2162 11.8906 17.2162 11.2474V9.23143C17.207 5.71783 14.4435 2.83783 11.0722 2.83783Z" stroke="#535F71" stroke-width="1.5" stroke-miterlimit="10" stroke-linecap="round"/>
<path d="M14.1212 18.985C14.1212 20.7418 12.7394 22.1818 11.0537 22.1818C10.2155 22.1818 9.44174 21.817 8.88905 21.241C8.33636 20.665 7.98633 19.8586 7.98633 18.985" stroke="#535F71" stroke-width="1.5" stroke-miterlimit="10"/>
</svg>
