<svg width="32" height="32" viewBox="0 0 32 32" fill="none" xmlns="http://www.w3.org/2000/svg">
<path d="M28 7.97334C23.56 7.53334 19.0933 7.30667 14.64 7.30667C12 7.30667 9.36 7.44 6.72 7.70667L4 7.97334" stroke="#6F7988" stroke-width="1.5" stroke-linecap="round" stroke-linejoin="round"/>
<path d="M11.3333 6.62667L11.6266 4.88001C11.84 3.61334 12 2.66667 14.2533 2.66667H17.7466C20 2.66667 20.1733 3.66667 20.3733 4.89334L20.6666 6.62667" stroke="#6F7988" stroke-width="1.5" stroke-linecap="round" stroke-linejoin="round"/>
<path d="M25.1333 12.1867L24.2666 25.6133C24.12 27.7067 24 29.3333 20.28 29.3333H11.72C7.99997 29.3333 7.87997 27.7067 7.73331 25.6133L6.86664 12.1867" stroke="#6F7988" stroke-width="1.5" stroke-linecap="round" stroke-linejoin="round"/>
<path d="M13.7733 22H18.2133" stroke="#6F7988" stroke-width="1.5" stroke-linecap="round" stroke-linejoin="round"/>
<path d="M12.6667 16.6667H19.3334" stroke="#6F7988" stroke-width="1.5" stroke-linecap="round" stroke-linejoin="round"/>
</svg>
