<svg width="24" height="24" viewBox="0 0 24 24" fill="none" xmlns="http://www.w3.org/2000/svg">
<path fill-rule="evenodd" clip-rule="evenodd" d="M22.3067 5.77472C22.2307 5.4314 21.95 5.17809 21.6078 5.09736L21.5302 5.07906C21.1939 4.99973 20.8405 5.09961 20.5955 5.34322L17.8275 8.0955L16.0365 6.2715L19.1205 3.036L19.0733 2.63067C19.0285 2.24574 18.7666 1.91758 18.3957 1.80511C17.8784 1.64824 17.3179 1.51176 16.83 1.506C16.0802 1.49274 15.3359 1.63578 14.6445 1.926C13.9759 2.22764 13.3719 2.65546 12.8655 3.186C12.2999 3.71958 11.8527 4.36604 11.553 5.0835C10.9735 6.50989 10.9735 8.10611 11.553 9.5325C8.4258 12.609 5.33903 15.7262 2.29348 18.8835C1.97848 19.296 1.82848 19.8105 1.86748 20.328C1.88246 20.6037 1.95164 20.8737 2.07107 21.1225C2.19049 21.3714 2.35782 21.5943 2.56348 21.7785C2.75148 21.9835 2.96998 22.1475 3.21898 22.2705C3.47398 22.383 3.74848 22.4475 4.02598 22.461C4.49998 22.452 4.95448 22.272 5.30698 21.9555C7.62898 19.77 12.078 15.2805 14.6055 12.6495C15.291 12.9405 16.0275 13.0905 16.7715 13.089C17.5203 13.0881 18.2615 12.9372 18.9511 12.6453C19.6407 12.3535 20.265 11.9265 20.787 11.3895C21.8567 10.295 22.455 8.82494 22.4535 7.2945C22.4664 6.78313 22.4169 6.27281 22.3067 5.77472ZM4.39948 20.892C4.34212 20.9438 4.27238 20.98 4.19698 20.997C4.12314 21.011 4.04732 21.011 3.97348 20.997C3.896 20.985 3.82219 20.9558 3.75748 20.9115C3.68828 20.8707 3.62969 20.8142 3.58648 20.7465C3.37648 20.532 3.17998 20.124 3.37648 19.8945C5.43148 17.709 9.66298 13.437 12.309 10.8255C12.459 11.0245 12.623 11.2125 12.801 11.3895C12.978 11.5745 13.168 11.745 13.371 11.901C10.812 14.526 6.63748 18.747 4.39948 20.892ZM21.0765 7.2945C21.0795 8.442 20.6325 9.5445 19.8285 10.3665C19.0264 11.1539 17.9472 11.595 16.8232 11.595C15.6992 11.595 14.6201 11.1539 13.818 10.3665C13.2296 9.75304 12.8277 8.98502 12.6591 8.15193C12.4905 7.31884 12.562 6.45498 12.8655 5.661C13.0674 5.1207 13.3804 4.62874 13.7842 4.21689C14.188 3.80505 14.6737 3.48248 15.21 3.27C15.7197 3.0584 16.2661 2.94932 16.818 2.949H17.199L14.7557 5.46756C14.5747 5.65415 14.4735 5.90389 14.4735 6.16385V6.38689C14.4735 6.65293 14.5795 6.90801 14.7681 7.09568L17.0234 9.34029C17.2108 9.5268 17.4644 9.6315 17.7288 9.6315H17.8967C18.159 9.6315 18.4108 9.52845 18.5978 9.34457L21.0765 6.9075V7.2945ZM4.64746 9.92474C4.78719 9.99526 4.94152 10.032 5.09804 10.032H7.15648L8.21398 11.1075L9.23098 10.0965L8.23348 9.0795V9.015L8.31014 6.79719C8.31594 6.62943 8.27942 6.46291 8.20394 6.31298L8.10918 6.12476C8.03043 5.96833 7.91198 5.83533 7.76568 5.73906L4.00071 3.26155C3.80572 3.13324 3.57199 3.07718 3.34002 3.10309L3.16677 3.12244C2.93764 3.14803 2.72439 3.252 2.56312 3.41677L1.80751 4.18875C1.65102 4.34862 1.55266 4.55635 1.52816 4.77871L1.50522 4.98695C1.48046 5.21167 1.53258 5.43814 1.65307 5.62944L4.07611 9.47624C4.17286 9.62985 4.3096 9.75422 4.47167 9.83601L4.64746 9.92474ZM3.44248 4.584L6.91348 6.87L6.8885 7.58921C6.8698 8.12766 6.42788 8.5545 5.88911 8.5545H5.24098L3.00298 5.0115L3.44248 4.584ZM14.1 15.024L15.111 14.0145L19.77 18.792C20.1621 19.2046 20.3807 19.7521 20.3807 20.3213C20.3807 20.8904 20.1621 21.4379 19.77 21.8505C19.4754 22.1542 19.0959 22.3617 18.6813 22.446C18.2667 22.5304 17.8363 22.4875 17.4465 22.323C17.1974 22.213 16.9741 22.052 16.791 21.8505L12.078 17.046L13.0965 16.029L17.7945 20.82C17.8576 20.8898 17.9362 20.9437 18.024 20.9775C18.1967 21.0472 18.3897 21.0472 18.5625 20.9775C18.6503 20.9437 18.7289 20.8898 18.792 20.82C18.859 20.7561 18.9104 20.6776 18.942 20.5905C18.9772 20.5027 18.9955 20.4091 18.996 20.3145C18.993 20.2203 18.9753 20.1272 18.9435 20.0385C18.9119 19.9515 18.8605 19.8729 18.7935 19.809L14.1 15.024Z" fill="#0058F6"/>
</svg>
