<svg width="184" height="38" viewBox="0 0 184 38" fill="none" xmlns="http://www.w3.org/2000/svg">
<g clip-path="url(#clip0_2023_190)">
<g opacity="0.4">
<path d="M61.6794 35.6865C61.7977 35.6865 61.895 35.7704 61.9213 35.8858C62.1053 36.7016 63.1357 36.8327 63.7166 36.8327C64.5761 36.8327 65.5119 36.6098 65.5119 35.9855C65.5119 35.474 65.2254 35.3009 63.367 35.0517C61.322 34.7789 60.2495 34.5402 60.2495 33.0346C60.2495 31.1539 62.4444 30.9073 63.5536 30.9073C64.5288 30.9073 66.8025 31.0437 67.1048 32.8851C67.1285 33.0346 67.0102 33.1736 66.8577 33.1736H65.5356C65.4252 33.1736 65.3305 33.1002 65.299 32.9952C65.0545 32.1768 64.0162 32.0798 63.4669 32.0798C62.4943 32.0798 61.9712 32.4916 61.9712 32.8405C61.9712 33.3756 62.1342 33.4621 63.7928 33.6982C65.964 34.0103 67.3861 34.2202 67.3861 35.752C67.3861 37.4334 65.7774 38.0052 63.7324 38.0052C62.3918 38.0052 60.3047 37.7351 60.0524 35.9724C60.0313 35.8229 60.1496 35.6891 60.2994 35.6891H61.6847L61.6794 35.6865Z" fill="#0058F6"/>
<path d="M72.2463 30.9073C75.2034 30.9073 76.3364 32.6385 76.3364 34.4536C76.3364 36.2688 75.2008 38 72.2463 38C69.2918 38 68.1562 36.2688 68.1562 34.4536C68.1562 32.6385 69.2918 30.9073 72.2463 30.9073ZM72.2463 36.6806C73.9181 36.6806 74.541 35.5973 74.541 34.4536C74.541 33.31 73.9181 32.2267 72.2463 32.2267C70.5745 32.2267 69.9516 33.31 69.9516 34.4536C69.9516 35.5973 70.5745 36.6806 72.2463 36.6806Z" fill="#0058F6"/>
<path d="M77.7243 32.3998H76.8595C76.7228 32.3998 76.6124 32.2896 76.6124 32.1532V31.403C76.6124 31.2666 76.7228 31.1565 76.8595 31.1565H77.7243C77.8609 31.1565 77.9713 31.0463 77.9713 30.9099V30.3119C77.9713 29.5774 78.158 28.62 79.9559 28.62C80.5605 28.62 80.9364 28.6357 81.2702 28.6567C81.4016 28.6646 81.5041 28.7721 81.5041 28.9033V29.643C81.5041 29.7872 81.3806 29.9 81.236 29.8895C81.0494 29.8764 80.8233 29.8659 80.6183 29.8659C79.8324 29.8659 79.6957 30.0522 79.6957 30.6502V30.9125C79.6957 31.0489 79.8061 31.1591 79.9428 31.1591H81.2544C81.3911 31.1591 81.5015 31.2693 81.5015 31.4057V32.1559C81.5015 32.2923 81.3911 32.4024 81.2544 32.4024H79.9428C79.8061 32.4024 79.6957 32.5126 79.6957 32.649V37.5069C79.6957 37.6433 79.5853 37.7534 79.4486 37.7534H78.2237C78.087 37.7534 77.9766 37.6433 77.9766 37.5069V32.649C77.9766 32.5126 77.8662 32.4024 77.7295 32.4024L77.7243 32.3998Z" fill="#0058F6"/>
<path d="M81.7722 31.1538H83.1075C83.2127 31.1538 83.3073 31.2194 83.3415 31.3191L84.9791 35.9829H85.0027L86.5299 31.3243C86.5641 31.222 86.6587 31.1538 86.7665 31.1538H88.2043C88.3121 31.1538 88.4067 31.222 88.4409 31.3243L89.9681 35.9829H89.9918L91.6294 31.3191C91.6635 31.2194 91.7582 31.1538 91.8633 31.1538H93.1986C93.3721 31.1538 93.493 31.327 93.4299 31.4896L91.1115 37.5908C91.0747 37.6878 90.9827 37.7508 90.8802 37.7508H89.282C89.1769 37.7508 89.0823 37.6852 89.0481 37.5855L87.4972 33.171H87.471L85.9201 37.5855C85.8859 37.6852 85.7913 37.7508 85.6862 37.7508H84.088C83.9855 37.7508 83.8935 37.6878 83.8567 37.5908L81.5383 31.4896C81.4778 31.327 81.5961 31.1538 81.7696 31.1538H81.7722Z" fill="#0058F6"/>
<path d="M101.408 36.2452C101.408 36.6071 101.671 36.6176 101.781 36.6176C101.865 36.6176 101.973 36.615 102.081 36.6072C102.223 36.5993 102.343 36.7121 102.343 36.8537V37.5829C102.343 37.701 102.259 37.8033 102.144 37.8242C101.876 37.8793 101.589 37.9344 101.121 37.9344C100.348 37.9344 100.049 37.6511 99.9199 37.3941C99.8542 37.2603 99.6834 37.2183 99.5624 37.3023C99.1156 37.6196 98.2718 37.9947 96.7183 37.9947C94.9966 37.9947 94.024 37.2236 94.024 35.9278C94.024 34.11 95.8956 33.95 96.9917 33.8503C99.4626 33.6143 99.7228 33.5277 99.7228 33.0162C99.7228 32.2581 98.8501 32.0693 97.8512 32.0693C96.8524 32.0693 96.2189 32.3683 96.0717 32.9769C96.0454 33.087 95.9455 33.1657 95.8325 33.1657H94.6575C94.4972 33.1657 94.3789 33.0162 94.4157 32.8588C94.7679 31.3716 96.0139 30.8994 97.8512 30.8994C101.305 30.8994 101.405 32.2555 101.405 33.1159V36.2399L101.408 36.2452ZM99.686 34.8156C99.686 34.6504 99.5283 34.5323 99.3679 34.5795C98.9368 34.7054 98.398 34.7684 97.428 34.8759C96.1295 35.0255 95.8194 35.3114 95.8194 35.8727C95.8194 36.7435 96.6184 36.9062 97.2046 36.9062C98.1272 36.9062 99.686 36.5573 99.686 35.1015V34.8156Z" fill="#0058F6"/>
<path d="M103.34 31.1539H104.565C104.701 31.1539 104.812 31.264 104.812 31.4004V32.4339H104.835C105.298 31.6863 106.008 30.9781 107.33 30.9781C107.506 30.9781 107.653 30.9886 107.8 31.007C107.924 31.0227 108.016 31.1276 108.016 31.2535V32.4103C108.016 32.5703 107.866 32.6857 107.708 32.649C107.393 32.5782 107.148 32.5703 106.917 32.5703C106.044 32.5703 104.809 33.032 104.809 34.5612V37.499C104.809 37.6354 104.699 37.7456 104.562 37.7456H103.337C103.2 37.7456 103.09 37.6354 103.09 37.499V31.3978C103.09 31.2614 103.2 31.1512 103.337 31.1512L103.34 31.1539Z" fill="#0058F6"/>
<path d="M110.731 34.8891C110.574 34.8891 110.455 35.036 110.487 35.1907C110.634 35.8989 111.204 36.7567 112.692 36.7567C113.749 36.7567 114.254 36.413 114.59 35.9225C114.637 35.8543 114.714 35.8098 114.798 35.8098H116.112C116.309 35.8098 116.425 36.0248 116.322 36.1901C115.846 36.956 114.876 38 112.742 38C109.761 38 108.652 36.2688 108.652 34.514C108.652 32.3106 110.287 30.9047 112.632 30.9047C115.563 30.9047 116.685 32.7093 116.685 34.6399V34.8891H110.731ZM114.577 33.7953C114.748 33.7953 114.863 33.6274 114.811 33.4648C114.472 32.4077 113.428 32.0772 112.655 32.0772C111.927 32.0772 110.926 32.3893 110.539 33.4674C110.482 33.6274 110.605 33.7953 110.776 33.7953H114.574H114.577Z" fill="#0058F6"/>
<path d="M123.58 35.6865C123.698 35.6865 123.795 35.7704 123.821 35.8858C124.005 36.7016 125.036 36.8327 125.617 36.8327C126.476 36.8327 127.412 36.6098 127.412 35.9855C127.412 35.474 127.126 35.3009 125.267 35.0517C123.222 34.7789 122.15 34.5402 122.15 33.0346C122.15 31.1539 124.345 30.9073 125.456 30.9073C126.432 30.9073 128.705 31.0437 129.008 32.8851C129.031 33.0346 128.913 33.1736 128.761 33.1736H127.438C127.328 33.1736 127.233 33.1002 127.202 32.9952C126.957 32.1768 125.919 32.0798 125.37 32.0798C124.397 32.0798 123.874 32.4916 123.874 32.8405C123.874 33.3756 124.037 33.4621 125.696 33.6982C127.867 34.0103 129.289 34.2202 129.289 35.752C129.289 37.4334 127.68 38.0052 125.635 38.0052C124.295 38.0052 122.208 37.7351 121.955 35.9724C121.934 35.8229 122.052 35.6891 122.202 35.6891H123.588L123.58 35.6865Z" fill="#0058F6"/>
<path d="M134.147 30.9073C137.104 30.9073 138.237 32.6385 138.237 34.4536C138.237 36.2688 137.101 38 134.147 38C131.192 38 130.056 36.2688 130.056 34.4536C130.056 32.6385 131.192 30.9073 134.147 30.9073ZM134.147 36.6806C135.818 36.6806 136.441 35.5973 136.441 34.4536C136.441 33.31 135.818 32.2267 134.147 32.2267C132.475 32.2267 131.852 33.31 131.852 34.4536C131.852 35.5973 132.475 36.6806 134.147 36.6806Z" fill="#0058F6"/>
<path d="M139.646 28.7144H140.87C141.007 28.7144 141.118 28.8246 141.118 28.961V37.5016C141.118 37.638 141.007 37.7482 140.87 37.7482H139.646C139.509 37.7482 139.398 37.638 139.398 37.5016V28.961C139.398 28.8246 139.509 28.7144 139.646 28.7144Z" fill="#0058F6"/>
<path d="M142.813 31.1539H144.038C144.175 31.1539 144.285 31.264 144.285 31.4004V34.9127C144.285 35.9199 144.522 36.6806 145.994 36.6806C146.756 36.6806 148.002 36.1822 148.002 34.7763V31.4004C148.002 31.264 148.112 31.1539 148.249 31.1539H149.474C149.61 31.1539 149.721 31.264 149.721 31.4004V37.5016C149.721 37.638 149.61 37.7482 149.474 37.7482H148.249C148.112 37.7482 148.002 37.638 148.002 37.5016V36.8275H147.975C147.413 37.5357 146.54 37.9974 145.368 37.9974C143.946 37.9974 142.561 37.4859 142.561 35.558V31.3978C142.561 31.2614 142.671 31.1512 142.808 31.1512L142.813 31.1539Z" fill="#0058F6"/>
<path d="M151.411 32.3998H150.536C150.399 32.3998 150.289 32.2896 150.289 32.1532V31.403C150.289 31.2666 150.399 31.1565 150.536 31.1565H151.411C151.548 31.1565 151.658 31.0463 151.658 30.9099V29.3623C151.658 29.2259 151.768 29.1158 151.905 29.1158H153.13C153.267 29.1158 153.377 29.2259 153.377 29.3623V30.9099C153.377 31.0463 153.488 31.1565 153.624 31.1565H154.925C155.062 31.1565 155.172 31.2666 155.172 31.403V32.1532C155.172 32.2896 155.062 32.3998 154.925 32.3998H153.624C153.488 32.3998 153.377 32.51 153.377 32.6464V35.4111C153.377 36.1691 153.414 36.5809 154 36.5809C154.337 36.5809 154.657 36.5731 154.978 36.5626C155.117 36.5573 155.233 36.6701 155.233 36.8091V37.5803C155.233 37.7062 155.138 37.8111 155.015 37.8269C154.657 37.8715 154.35 37.8977 153.911 37.8977C151.816 37.8977 151.653 37.1501 151.653 35.9068V32.6437C151.653 32.5073 151.542 32.3972 151.406 32.3972L151.411 32.3998Z" fill="#0058F6"/>
<path d="M156.497 28.7144H157.722C157.859 28.7144 157.969 28.8246 157.969 28.961V29.8607C157.969 29.9971 157.859 30.1073 157.722 30.1073H156.497C156.361 30.1073 156.25 29.9971 156.25 29.8607V28.961C156.25 28.8246 156.361 28.7144 156.497 28.7144ZM156.497 31.1538H157.722C157.859 31.1538 157.969 31.264 157.969 31.4004V37.5016C157.969 37.638 157.859 37.7482 157.722 37.7482H156.497C156.361 37.7482 156.25 37.638 156.25 37.5016V31.4004C156.25 31.264 156.361 31.1538 156.497 31.1538Z" fill="#0058F6"/>
<path d="M163.221 30.9073C166.178 30.9073 167.311 32.6385 167.311 34.4536C167.311 36.2688 166.176 38 163.221 38C160.267 38 159.131 36.2688 159.131 34.4536C159.131 32.6385 160.267 30.9073 163.221 30.9073ZM163.221 36.6806C164.893 36.6806 165.516 35.5973 165.516 34.4536C165.516 33.31 164.893 32.2267 163.221 32.2267C161.549 32.2267 160.926 33.31 160.926 34.4536C160.926 35.5973 161.549 36.6806 163.221 36.6806Z" fill="#0058F6"/>
<path d="M168.67 31.1539H169.895C170.032 31.1539 170.142 31.264 170.142 31.4004V32.148H170.166C170.728 31.4398 171.601 30.9781 172.773 30.9781C174.195 30.9781 175.581 31.4896 175.581 33.268V37.5016C175.581 37.638 175.47 37.7482 175.334 37.7482H174.109C173.972 37.7482 173.862 37.638 173.862 37.5016V33.8162C173.862 33.108 173.625 32.2975 172.203 32.2975C171.304 32.2975 170.145 32.7959 170.145 34.2018V37.5016C170.145 37.638 170.034 37.7482 169.898 37.7482H168.673C168.536 37.7482 168.426 37.638 168.426 37.5016V31.4004C168.426 31.264 168.536 31.1539 168.673 31.1539H168.67Z" fill="#0058F6"/>
<path d="M178.296 35.6865C178.414 35.6865 178.512 35.7704 178.538 35.8858C178.722 36.7016 179.752 36.8327 180.333 36.8327C181.193 36.8327 182.128 36.6098 182.128 35.9855C182.128 35.474 181.842 35.3009 179.984 35.0517C177.939 34.7789 176.866 34.5402 176.866 33.0346C176.866 31.1539 179.061 30.9073 180.173 30.9073C181.148 30.9073 183.422 31.0437 183.724 32.8851C183.748 33.0346 183.629 33.1736 183.477 33.1736H182.155C182.044 33.1736 181.95 33.1002 181.918 32.9952C181.674 32.1768 180.635 32.0798 180.086 32.0798C179.113 32.0798 178.59 32.4916 178.59 32.8405C178.59 33.3756 178.753 33.4621 180.412 33.6982C182.583 34.0103 184.005 34.2202 184.005 35.752C184.005 37.4334 182.397 38.0052 180.352 38.0052C179.011 38.0052 176.924 37.7351 176.672 35.9724C176.651 35.8229 176.769 35.6891 176.919 35.6891H178.304L178.296 35.6865Z" fill="#0058F6"/>
</g>
<path d="M60.4782 5.89136H64.9783C65.1833 5.89136 65.3673 6.01464 65.4435 6.2035L70.5482 18.9095C70.7138 19.324 71.3026 19.3292 71.4735 18.9148L76.7779 6.19825C76.8568 6.01202 77.0382 5.89136 77.2406 5.89136H81.7433C82.1061 5.89136 82.3479 6.26645 82.198 6.59696L73.9443 24.6356C73.8628 24.814 73.6841 24.9268 73.4896 24.9268H68.7319C68.5374 24.9268 68.3586 24.814 68.2771 24.6356L60.0234 6.59696C59.871 6.26645 60.1154 5.89136 60.4782 5.89136Z" fill="#0058F6"/>
<path d="M87.9204 16.6668C87.6155 16.6668 87.3763 16.9344 87.4236 17.2334C87.7443 19.3213 89.3346 22.0545 93.8452 22.0545C96.9601 22.0545 98.4137 21.0158 99.3862 19.5548C99.4809 19.4131 99.636 19.3266 99.8042 19.3266H104.091C104.475 19.3266 104.72 19.741 104.528 20.0715C103.242 22.2985 100.48 25.6481 93.9898 25.6481C85.3865 25.6481 82.1849 20.6565 82.1849 15.5914C82.1849 9.23311 86.9005 5.17526 93.6665 5.17526C102.125 5.17526 105.364 10.3846 105.364 15.9507V16.1711C105.364 16.4465 105.14 16.6694 104.864 16.6694H87.923L87.9204 16.6668ZM99.5597 13.506C99.8857 13.506 100.127 13.1965 100.046 12.8818C99.1838 9.57148 96.0427 8.54849 93.7348 8.54849C91.5662 8.54849 88.567 9.50328 87.534 12.8529C87.4341 13.1755 87.676 13.506 88.0124 13.506H99.5597Z" fill="#0058F6"/>
<path d="M111.896 18.9646C112.137 18.9646 112.345 19.1403 112.385 19.3764C112.81 21.8788 115.886 22.267 117.594 22.267C120.078 22.267 122.778 21.6217 122.778 19.8249C122.778 18.3534 121.95 17.8498 116.588 17.1311C110.684 16.3415 107.59 15.6596 107.59 11.3132C107.59 5.88873 113.925 5.17001 117.129 5.17001C119.986 5.17001 126.723 5.57396 127.412 11.1374C127.449 11.4365 127.218 11.7066 126.915 11.7066H122.686C122.46 11.7066 122.26 11.5545 122.205 11.3368C121.585 8.84227 118.493 8.54587 116.877 8.54587C114.069 8.54587 112.558 9.73148 112.558 10.7361C112.558 12.2811 113.026 12.5329 117.813 13.2149C124.076 14.112 128.18 14.7231 128.18 19.1403C128.18 23.9903 123.538 25.6402 117.634 25.6402C113.701 25.6402 107.548 24.835 106.983 19.5233C106.951 19.2243 107.18 18.9593 107.48 18.9593H111.898L111.896 18.9646Z" fill="#0058F6"/>
<path d="M132.091 9.4823H129.131C128.855 9.4823 128.632 9.25934 128.632 8.98392V6.38973C128.632 6.11431 128.855 5.89135 129.131 5.89135H132.091C132.367 5.89135 132.59 5.66839 132.59 5.39297V0.498378C132.59 0.222959 132.814 0 133.09 0H137.056C137.332 0 137.556 0.222959 137.556 0.498378V5.39035C137.556 5.66577 137.779 5.88873 138.055 5.88873H142.24C142.516 5.88873 142.739 6.11169 142.739 6.38711V8.98129C142.739 9.25671 142.516 9.47967 142.24 9.47967H138.055C137.779 9.47967 137.556 9.70263 137.556 9.97805V18.1724C137.556 20.3627 137.664 21.5483 139.356 21.5483C140.403 21.5483 141.396 21.5221 142.403 21.4932C142.684 21.4853 142.918 21.7109 142.918 21.9916V24.633C142.918 24.8848 142.729 25.0946 142.479 25.1287C141.359 25.273 140.442 25.3569 139.101 25.3569C133.056 25.3569 132.585 23.2008 132.585 19.6099V9.98067C132.585 9.70525 132.362 9.4823 132.086 9.4823H132.091Z" fill="#0058F6"/>
<path d="M145.441 5.89135H149.408C149.684 5.89135 149.907 6.11431 149.907 6.38973V9.58984H149.978C151.311 7.4337 153.361 5.38773 157.178 5.38773C157.764 5.38773 158.24 5.42969 158.726 5.50052C158.973 5.53462 159.157 5.74708 159.157 5.99627V9.79444C159.157 10.1197 158.847 10.3558 158.529 10.2745C157.491 10.0121 156.713 9.98592 155.99 9.98592C153.472 9.98592 149.907 11.3158 149.907 15.733V24.4284C149.907 24.7038 149.684 24.9268 149.408 24.9268H145.441C145.165 24.9268 144.942 24.7038 144.942 24.4284V6.38973C144.942 6.11431 145.165 5.89135 145.441 5.89135Z" fill="#0058F6"/>
<path d="M181.3 20.5804C181.3 21.6217 182.055 21.6585 182.381 21.6585C182.678 21.6585 183.093 21.6427 183.456 21.6139C183.748 21.5903 184 21.8185 184 22.1096V24.6225C184 24.8586 183.832 25.0632 183.6 25.1104C182.772 25.2783 181.931 25.4645 180.472 25.4645C178.054 25.4645 177.242 24.5045 176.924 23.7175C176.8 23.4159 176.427 23.3031 176.167 23.4998C174.934 24.4363 172.482 25.6429 167.769 25.6429C162.801 25.6429 159.993 23.4159 159.993 19.6807C159.993 14.4372 165.392 13.9703 168.56 13.6818C175.686 12.9998 176.443 12.748 176.443 11.2765C176.443 9.08622 173.922 8.54587 171.044 8.54587C167.976 8.54587 166.233 9.46131 165.879 11.3184C165.834 11.5466 165.626 11.7066 165.392 11.7066H161.562C161.242 11.7066 161.008 11.4102 161.074 11.0981C162.001 6.58908 165.632 5.17001 171.046 5.17001C181.017 5.17001 181.306 9.08622 181.306 11.5624V20.5778L181.3 20.5804ZM176.332 16.1632C176.332 15.8274 176.004 15.5809 175.683 15.6884C174.393 16.1133 172.826 16.2943 169.816 16.6301C166.073 17.0603 165.174 17.8865 165.174 19.5023C165.174 22.0178 167.477 22.4847 169.17 22.4847C171.832 22.4847 176.332 21.4801 176.332 17.2754V16.1632Z" fill="#0058F6"/>
<path d="M51.1021 2.04072L15.3798 37.6852C14.7042 38.3594 13.5477 37.882 13.5477 36.9298V21.4617C13.5477 20.8715 13.0693 20.3915 12.4752 20.3915H2.14491C0.962057 20.3915 0 19.4315 0 18.2511V2.35549C0 1.17512 0.962057 0.215088 2.14491 0.215088H11.4054C12.5909 0.215088 13.5503 1.17512 13.5503 2.35549V17.8078C13.5503 18.398 14.0313 18.878 14.6227 18.878C14.9119 18.878 15.1721 18.7652 15.364 18.5816L15.3955 18.5501L32.8282 1.15414C33.4302 0.55346 34.2503 0.215088 35.1046 0.215088H50.3424C51.2992 0.215088 51.7776 1.3666 51.1021 2.04072Z" fill="#0058F6"/>
</g>
<defs>
<clipPath id="clip0_2023_190">
<rect width="184" height="38" fill="white"/>
</clipPath>
</defs>
</svg>
